# xmcd
#
# Track frame offsets: 
#        150
#        12361
#        25145
#        39409
#        51939
#        66384
#        77835
#        91121
#        105707
#        118412
#        132432
#        143186
#        155831
#        169447
#        181720
#        194420
#        208311
#        221194
#        234887
#        245161
#        255083
#        268282
#        279412
#        293723
#        305867
#
# Disc length: 4231 seconds
#
# Revision: 0
# Processed by: cddbd v1.5.2PL0 Copyright (c) Steve Scherf et al.
# Submitted via: ExactAudioCopy v0.99pb5
#
DISCID=84108519
DTITLE=Various Artist - Electric Blues - Teil 1: Die Anfänge 1939 - 1954
DYEAR=2010
DGENRE=Blues
TTITLE0=Chuck Norris - Messin' Up - 1953
TTITLE1=B.B. King - Please Love Me - 1953
TTITLE2=Danny Overbea - Forty Cups Of Coffee - 1953
TTITLE3=John Brim - Ice Cream Man - 1953
TTITLE4=Ray Charles - Losing Hand - 1953
TTITLE5=Joe Hill Louis - Hydramatic Woman - 1992
TTITLE6=Little Junior's Blue Flames - Feelin' Good - 1953
TTITLE7=Amos Milburn - One Scotch, One Bourbon, One Beer - 1953
TTITLE8=Rufus Thomas, Jr. - Tiger Man - 1953
TTITLE9=Little Walter - Blues With A Feeling - 1953
TTITLE10=Lil' Son Jackson - Piggly Wiggly - 1953
TTITLE11=Joe Turner - TV Mama - 1953
TTITLE12=Guitar Slim - The Things That I Used To Do - 1953
TTITLE13=Champion Jack Dupree - Shim Sham Shimmy - 1953
TTITLE14=Clarence 'Gatemouth' Brown - Dirty Work At The Crossroad - 19
TTITLE14=53
TTITLE15=Jimmy Reed - You Don't Have To Go - 1954
TTITLE16=Muddy Waters - I'm Your Hoochie Coochie Man - 1954
TTITLE17=Jimmy Rogers - Sloppy Drunk - 1954
TTITLE18=Wynonie Harris - Shake That Thing - 1954
TTITLE19=Papa Lightfoot - Wine, Women, Whiskey - 1954
TTITLE20=Pat Hare - I'm Gonny Murder My Baby - 1954
TTITLE21=J.B. Hutto - Pet Cream Man - 1954
TTITLE22=Lowell Fulson - Reconsider Baby - 1954
TTITLE23=Lafayette Thomas - Don't Have To Worry
TTITLE24=Dr. Ross - The Boogie Disease - 1954
EXTD=
EXTT0=
EXTT1=
EXTT2=
EXTT3=
EXTT4=
EXTT5=
EXTT6=
EXTT7=
EXTT8=
EXTT9=
EXTT10=
EXTT11=
EXTT12=
EXTT13=
EXTT14=
EXTT15=
EXTT16=
EXTT17=
EXTT18=
EXTT19=
EXTT20=
EXTT21=
EXTT22=
EXTT23=
EXTT24=
PLAYORDER=
